<?xml version="1.0" encoding="utf-8"?>
<!-- Generator: Adobe Illustrator 21.0.2, SVG Export Plug-In . SVG Version: 6.00 Build 0)  -->
<svg version="1.1" id="Layer_1" xmlns="http://www.w3.org/2000/svg" xmlns:xlink="http://www.w3.org/1999/xlink" x="0px" y="0px"
	 viewBox="0 0 200 80" style="enable-background:new 0 0 200 80;" xml:space="preserve">
<style type="text/css">
	.st0{fill:#FFFFFF;}
</style>
<g>
	<path class="st0" d="M39.9,75.1H6.8V30.3h33.1v7.2h5.9V27.4c0-1.6-1.3-2.9-2.9-2.9H3.9c-1.6,0-2.9,1.3-2.9,2.9V78
		C1,79.6,2.3,81,3.9,81h38.9c1.6,0,2.9-1.3,2.9-2.9V68h-5.9V75.1z"/>
	<path class="st0" d="M6.1,7.1C6.3,4.2,15.4,3.5,21,2.7c1.9-0.3,13.3-1.3,22.1-3.3C41,1.3,39,3.9,25,5.8c-1,0.1-8,0.9-10,1.2
		c3.1,0.5,3.8,0.8,7,1.2c13.6,1.9,17.7,2.5,17.7,5.4c0,2.6-3.8,3.2-17,5.1c0,0-8.6,1-14.3,4.3c0,0,1.7-6.1,13.2-7.9
		c1.9-0.3,8-1,9.5-1.2c-3.1-0.5-6.5-0.8-9.4-1.2C9,11,5.9,10.3,6.1,7.1z"/>
	<g>
		<path class="st0" d="M113.7,64.3v-23h8.7c5.4,0,8.3,2.7,8.3,7.5c0,5.2-2.6,7.7-8.1,7.7h-3.3v7.8H113.7z M119.3,52h0.9
			c2.2,0,4.7,0,4.7-3.1c0-3.3-2.4-3.3-4.7-3.3h-0.9V52z"/>
		<path class="st0" d="M39.9,64.3v-23h8.4c6.5,0,11.6,5.2,11.6,11.5c0,6.4-5.2,11.5-11.6,11.5H39.9z M45.5,59.6h1.6
			c3.4,0,6.9-1.8,6.9-6.8c0-4.2-2.6-6.8-6.9-6.8h-1.7V59.6z"/>
		<path class="st0" d="M76.3,64.3l-5.8-9.1h-0.5l0,9.1h-5.6v-23h8.9c5,0,7.9,2.5,7.9,7c0,3.4-1.9,5.9-4.9,6.4l-0.4,0.1l7.3,9.6H76.3
			z M70.1,51.8h0.8c1.9,0,4.5-0.3,4.5-3.2c0-2.9-2.6-3.2-4.5-3.2h-0.8V51.8z"/>
		<polygon class="st0" points="140,64.3 140,45.9 135,45.9 135,41.2 150.7,41.2 150.7,45.9 145.6,45.9 145.6,64.3 		"/>
		<path class="st0" d="M97.2,64.9c-7,0-12.1-5.1-12.1-12.4c0-6.5,5.4-11.9,12.1-11.9c6.7,0,12.1,5.4,12.1,11.9
			C109.3,59.8,104.2,64.9,97.2,64.9 M97.2,46.1c-3.5,0-6.3,3-6.3,6.4c0,4,2.6,6.9,6.3,6.9c3.7,0,6.3-2.8,6.3-6.9
			C103.5,49.1,100.7,46.1,97.2,46.1"/>
		<path class="st0" d="M181.8,64.3v-23h8.7c5.3,0,8.3,2.7,8.3,7.5c0,5.2-2.6,7.7-8.1,7.7h-3.3v7.8H181.8z M187.4,52h0.9
			c2.2,0,4.7,0,4.7-3.1c0-3.3-2.4-3.3-4.7-3.3h-0.9V52z"/>
		<path class="st0" d="M165.7,64.9c-7,0-12.1-5.1-12.1-12.4c0-6.5,5.4-11.9,12.1-11.9c6.7,0,12.1,5.4,12.1,11.9
			C177.8,59.8,172.7,64.9,165.7,64.9 M165.7,46.1c-3.5,0-6.3,3-6.3,6.4c0,4,2.6,6.9,6.3,6.9c3.7,0,6.3-2.8,6.3-6.9
			C172,49.1,169.2,46.1,165.7,46.1"/>
	</g>
</g>
</svg>
