<?xml version="1.0" encoding="utf-8"?>
<!-- Generator: Adobe Illustrator 21.0.2, SVG Export Plug-In . SVG Version: 6.00 Build 0)  -->
<svg version="1.1" id="Layer_1" xmlns="http://www.w3.org/2000/svg" xmlns:xlink="http://www.w3.org/1999/xlink" x="0px" y="0px"
	 viewBox="0 0 1024 768" style="enable-background:new 0 0 1024 768;" xml:space="preserve">
<style type="text/css">
	.st0{fill:#BCC0DD;}
</style>
<g>
	<path class="st0" d="M505.8,395.5v-23.3h8.8c5.4,0,8.4,2.7,8.4,7.6c0,5.3-2.7,7.8-8.2,7.8h-3.4v7.9H505.8z M511.5,383.2h0.9
		c2.2,0,4.7,0,4.7-3.2c0-3.3-2.4-3.3-4.7-3.3h-0.9V383.2z"/>
	<path class="st0" d="M431.1,395.5v-23.3h8.5c6.5,0,11.8,5.2,11.8,11.7c0,6.4-5.2,11.7-11.8,11.7H431.1z M436.8,390.8h1.6
		c3.4,0,7-1.8,7-6.9c0-4.2-2.7-6.9-7-6.9h-1.7V390.8z"/>
	<path class="st0" d="M468,395.5l-5.8-9.2h-0.5l0,9.2H456v-23.3h9c5.1,0,8,2.6,8,7.1c0,3.4-2,5.9-5,6.5l-0.4,0.1l7.4,9.7H468z
		 M461.6,382.9h0.9c2,0,4.6-0.3,4.6-3.2c0-2.9-2.6-3.2-4.6-3.2h-0.9V382.9z"/>
	<polygon class="st0" points="532.4,395.5 532.4,377 527.3,377 527.3,372.2 543.2,372.2 543.2,377 538.1,377 538.1,395.5 	"/>
	<path class="st0" d="M489.1,396.2c-7.1,0-12.3-5.2-12.3-12.6c0-6.5,5.5-12.1,12.3-12.1c6.8,0,12.3,5.5,12.3,12.1
		C501.4,391,496.2,396.2,489.1,396.2 M489.1,377.2c-3.5,0-6.3,3-6.3,6.5c0,4.1,2.6,6.9,6.3,6.9c3.7,0,6.3-2.9,6.3-6.9
		C495.4,380.2,492.6,377.2,489.1,377.2"/>
	<path class="st0" d="M574.7,395.5v-23.3h8.8c5.4,0,8.4,2.7,8.4,7.6c0,5.3-2.7,7.8-8.2,7.8h-3.4v7.9H574.7z M580.3,383.2h0.9
		c2.2,0,4.7,0,4.7-3.2c0-3.3-2.4-3.3-4.7-3.3h-0.9V383.2z"/>
	<path class="st0" d="M558.4,396.2c-7.1,0-12.2-5.2-12.2-12.6c0-6.5,5.5-12.1,12.2-12.1c6.8,0,12.3,5.5,12.3,12.1
		C570.7,391,565.5,396.2,558.4,396.2 M558.4,377.2c-3.5,0-6.3,3-6.3,6.5c0,4.1,2.6,6.9,6.3,6.9c3.7,0,6.3-2.9,6.3-6.9
		C564.7,380.2,561.9,377.2,558.4,377.2"/>
</g>
</svg>
