<?xml version="1.0" encoding="utf-8"?>
<!-- Generator: Adobe Illustrator 21.0.2, SVG Export Plug-In . SVG Version: 6.00 Build 0)  -->
<svg version="1.1" id="Layer_1" xmlns="http://www.w3.org/2000/svg" xmlns:xlink="http://www.w3.org/1999/xlink" x="0px" y="0px"
	 viewBox="0 0 80 80" style="enable-background:new 0 0 80 80;" xml:space="preserve">
<style type="text/css">
	.st0{fill:none;stroke:#FFFFFF;stroke-width:2;stroke-linecap:round;stroke-miterlimit:10;}
	.st1{fill:none;stroke:#FFFFFF;stroke-miterlimit:10;}
	.st2{font-family:'MyriadPro-Regular';}
	.st3{font-size:12.9336px;}
</style>
<path class="st0" d="M19.8,11.7V6h42v5.6l12.4,10.5v6.2c0,0-0.6,2.7-3.7,4v36.2c0,0,4.7-0.3,4.6,2.6c0,0,0.7,2.9-4.6,2.9H11.4
	c0,0-4.6,0-4.3-2.6c0,0-0.9-2.9,4.9-2.9V32.2c0,0-2.9-0.4-4.3-3.6v-6.3L19.8,11.7z"/>
<line class="st0" x1="19.8" y1="11.7" x2="61.7" y2="11.6"/>
<line class="st0" x1="7.7" y1="22.2" x2="74.1" y2="22.2"/>
<line class="st0" x1="12" y1="68.5" x2="70.4" y2="68.5"/>
<path class="st0" d="M25.6,11.7l-6.7,10.4l0,6.4c0,0-2.7,4.7-6.9,3.6"/>
<line class="st0" x1="56.2" y1="11.6" x2="63" y2="22"/>
<path class="st0" d="M63.1,22.3l0.3,6.3c0,0,1.1,4,6.9,3.7"/>
<path class="st0" d="M18.9,28.6c0,0,1.4,3.4,5.3,3.7c0,0,3.9,0.3,5.9-3.7L30,22.3l2.9-10.5"/>
<path class="st0" d="M30.1,28.6c0,0,2.3,4,5.2,3.9c0,0,4-0.1,5.9-3.9l-0.1-6.5V11.7"/>
<path class="st0" d="M41.2,28.6c0,0,1.3,3.7,5.7,3.7c0,0,3.9-0.1,5.3-3.7l0-6.5l-3.1-10.4"/>
<path class="st0" d="M52.3,28.6c0,0,2.2,4.6,6.5,3.7c3.8-0.8,4.7-3.7,4.7-3.7"/>
<rect x="17.9" y="43.1" class="st0" width="46.1" height="20.7"/>
<polyline class="st0" points="29.3,42.8 41.3,36 52.5,42.8 "/>
<g>
	<text transform="matrix(1.1107 0 0 1 23.8096 58.0215)" class="st1 st2 st3">OPEN</text>
</g>
</svg>
